<?xml version="1.0" encoding="UTF-8"?>
<svg id="Layer_2" data-name="Layer 2" xmlns="http://www.w3.org/2000/svg" viewBox="0 0 18.41 18.45">
  <defs>
    <style>
      .cls-1, .cls-2 {
        fill: #1b4b33;
      }

      .cls-2 {
        fill-rule: evenodd;
      }
    </style>
  </defs>
  <g id="Layer_1-2" data-name="Layer 1">
    <g>
      <path class="cls-1" d="M0,18.45l1.32-4.94C.57,12.17,.18,10.65,.18,9.11,.18,4.09,4.27,0,9.29,0s9.11,4.09,9.11,9.11-4.09,9.11-9.11,9.11c-1.51,0-3-.38-4.33-1.1l-4.96,1.33Zm5.21-3.18l.31,.19c1.15,.68,2.45,1.04,3.77,1.04,4.08,0,7.39-3.32,7.39-7.39S13.37,1.72,9.29,1.72,1.9,5.04,1.9,9.11c0,1.35,.37,2.67,1.08,3.83l.19,.31-.74,2.76,2.77-.74Z"/>
      <path class="cls-2" d="M12.69,10.38c-.38-.22-.86-.47-1.31-.29-.34,.14-.56,.67-.78,.94-.11,.14-.25,.16-.42,.09-1.27-.51-2.25-1.36-2.95-2.53-.12-.18-.1-.33,.05-.49,.21-.25,.48-.53,.54-.87,.06-.34-.1-.73-.24-1.03-.18-.38-.38-.93-.76-1.15-.35-.2-.82-.09-1.13,.17-.54,.44-.8,1.13-.8,1.82,0,.19,.03,.39,.07,.58,.11,.45,.32,.87,.55,1.28,.18,.3,.37,.6,.58,.88,.68,.92,1.53,1.73,2.51,2.33,.49,.3,1.02,.56,1.56,.74,.61,.2,1.16,.41,1.82,.29,.69-.13,1.38-.56,1.65-1.23,.08-.2,.12-.42,.08-.63-.09-.43-.68-.69-1.03-.9Z"/>
    </g>
  </g>
</svg>